/* XPM */
static char *dummy[]={
"32 32 5 1",
". c #000000",
"# c #198100",
"a c #ff002d",
"b c #ff738b",
"c c #ffffff",
"................................",
"......................#.........",
".....................##.........",
".....................##.........",
"....................###.........",
"....................##..........",
"....................##..........",
"...................###..........",
"..................###...........",
"..................###...........",
".................#.##...........",
"...............##..#............",
"..............##...#............",
"......aaaaa####....#............",
".....aabbbaa###....#............",
"....aacbaaaaa##....#............",
"....acbbaaaaaa#...###...........",
"...aabbaaaaaaa....###...........",
"...aabaaaaaaaa...#####..........",
"...aaaaaaaaaaa...#aaaaaa........",
"....aaaaaaaaaa...aaabaaaaa......",
"....aaaaaaaaa...aacbbaaaaa......",
".....aaaaaaa....acbaaaaaaaa.....",
".......aaa.....aabbaaaaaaaa.....",
"...............aabaaaaaaaaa.....",
"................aaaaaaaaaaa.....",
"................aaaaaaaaaaa.....",
".................aaaaaaaaa......",
"..................aaaaaaa.......",
"....................aaa.........",
"................................",
"................................"};
