/* XPM */
static char *dummy[]={
"32 32 29 1",
". c #000000",
"f c #010000",
"e c #020001",
"n c #040002",
"g c #050002",
"c c #091dfe",
"a c #0a1efe",
"o c #0b1ffe",
"z c #f5027e",
"t c #f6027e",
"y c #f6027f",
"A c #f7027f",
"u c #f8027f",
"x c #f80280",
"i c #f9027d",
"s c #f9027e",
"v c #f90280",
"p c #f90281",
"l c #fa027d",
"w c #fa027f",
"# c #fa0281",
"j c #fb027e",
"r c #fb027f",
"d c #fb0280",
"k c #fc027e",
"q c #fc027f",
"h c #fd027f",
"m c #fe027f",
"b c #ffffff",
"...........#abbbbbbcde..........",
"...........#abbbbbbcdf..........",
"...........#abbbbbbc#f..........",
"...........#abbbbbbc#e..........",
"...........#abbbbbbc#e..........",
"...........#abbbbbbc#e..........",
"...........#abbbbbbc#e..........",
"...........#abbbbbbc#e..........",
"...........#abbbbbbc#e..........",
"...........#abbbbbbc#e..........",
"...........#abbbbbbc#g..........",
"...........#abbbbbbchijkhhhhklij",
"...........#abbbbbbccccccccccccc",
"...........#abbbbbbbbbbbbbbbbbbb",
"...........#abbbbbbbbbbbbbbbbbbb",
"...........#abbbbbbbbbbbbbbbbbbb",
"...........#cbbbbbbbbbbbbbbbbbbb",
"...........mcbbbbbbbbbbbbbbbbbbb",
"............mabbbbbbbbbbbbbbbbbb",
"............ndccoooooooooooooooo",
".............fmpqqqrstuvvvvwxyzA",
"................................",
"................................",
"................................",
"................................",
"................................",
"................................",
"................................",
"................................",
"................................",
"................................",
"................................"};
