/* XPM */
static char *dummy[]={
"32 32 29 1",
". c #000000",
"p c #010000",
"o c #020001",
"A c #040002",
"q c #050002",
"a c #091dfe",
"z c #0a1efe",
"c c #0b1ffe",
"f c #f5027e",
"r c #f6027e",
"h c #f6027f",
"d c #f7027f",
"n c #f8027f",
"j c #f80280",
"e c #f9027d",
"u c #f9027e",
"m c #f90280",
"x c #f90281",
"g c #fa027d",
"l c #fa027f",
"t c #fa0281",
"# c #fb027e",
"v c #fb027f",
"s c #fb0280",
"i c #fc027e",
"w c #fc027f",
"k c #fd027f",
"y c #fe027f",
"b c #ffffff",
"...........#abbbbbbcd...........",
"...........eabbbbbbcf...........",
"...........gabbbbbbch...........",
"...........iabbbbbbcj...........",
"...........kabbbbbbcl...........",
"...........kabbbbbbcm...........",
"...........kabbbbbbcm...........",
"...........kabbbbbbcm...........",
"...........iabbbbbbcm...........",
"...........#abbbbbbcn...........",
"oppoooooooqeabbbbbbcr...........",
"sstttttttttkabbbbbbcu...........",
"aaaaaaaaaaaaabbbbbbcv...........",
"bbbbbbbbbbbbbbbbbbbcw...........",
"bbbbbbbbbbbbbbbbbbbcw...........",
"bbbbbbbbbbbbbbbbbbbcw...........",
"bbbbbbbbbbbbbbbbbbbax...........",
"bbbbbbbbbbbbbbbbbbbay...........",
"bbbbbbbbbbbbbbbbbbzsp...........",
"zzzzzzzzzzzzzzzzaayA............",
"ttttttttttttttttty..............",
"................................",
"................................",
"................................",
"................................",
"................................",
"................................",
"................................",
"................................",
"................................",
"................................",
"................................"};
