/* XPM */
static char *dummy[]={
"32 32 5 1",
". c #000000",
"c c #0075b7",
"a c #039af0",
"# c #05507b",
"b c #ffffff",
"..........#####...ab............",
"............bbbbbbbbbcc.........",
".........aabbc###.cbbb..........",
".........b.c.ccc#c...b..........",
".......##.bc.cccc#ccbbb.........",
".......#..bcc#aabcc.c.c.........",
".......#..#cccbbaccccbbc..#.....",
".......b##.cccbbaaccc#bc##......",
"........c.cbcb#bbbcccc#c#.......",
".......cccccbbcbbbbccc.b........",
".......ccccc#bbcbbbbcc.bb..b....",
".......ccbbbcbcbbbbbccbbbbb.....",
"....#.c.ccba#bbbcbbbcc.cb.......",
".....#c.ccba#bbccbbbc#c.bcc.....",
"......cc..b##bbacccbcc#.b.......",
"......ccbbbccbcaabcbcc#bb.......",
"......ccccbc#bb#abbb#c#b........",
"........ccb#cbb#abbbcc#.b...c...",
".........cbbccb##bbbcc#cb...c...",
"........accb##bb#bcccc##ccccc...",
"........accb##bbabcccb..........",
"........bccbb#aaabbccc..cccc....",
"........bcc#bbbabbccacccb.......",
"........bc.abbbbbbccccc#.bb.....",
".........baacbbbbbc#bbccc.......",
"......b..baacbbbbcc#b...cc......",
".......b.b.c.bbbb#ccbccb#.......",
".......b..bccabba#cccbc.#.......",
".......cbcb.ccaacc#c.cb.........",
".......ccbbbccca#c#abb..........",
".......bb.cbcc.c##abbb..........",
".........ba.bbb#cb.bbb.........."};
