/* XPM */
static char *dummy[]={
"32 32 10 1",
". c #000000",
"h c #010100",
"g c #101010",
"b c #191919",
"f c #1b1b1b",
"e c #242424",
"d c #3e3e3e",
"c c #656565",
"# c #ffe300",
"a c #ffffff",
"................................",
"................................",
"................................",
"................................",
"............########............",
"..........############..........",
".........###############........",
".......##################.......",
".......###################......",
"......##########aab.######......",
".....###########acd.#######.....",
".....###########efg.########....",
"....############....########....",
"....#####################.......",
"....###################.........",
"....################............",
"....##############..............",
"....################............",
"....##################..........",
"....####################........",
"....######################......",
".....#######################....",
".....#######################....",
"......#####################.....",
"......####################......",
".......##################.......",
"........################........",
"..........#############.........",
"...........##########...........",
"............########............",
"................................",
"................................"};
