/* XPM */
static char *dummy[]={
"32 32 28 1",
"y c #000000",
"x c #000000",
". c #000000",
"b c #010100",
"e c #020201",
"q c #030301",
"f c #040402",
"d c #050400",
"a c #060500",
"j c #080808",
"c c #0f0d00",
"i c #101010",
"m c #211d00",
"l c #f0f0ef",
"k c #f1f1f1",
"w c #fadf00",
"r c #fbe001",
"g c #fce000",
"u c #fce104",
"o c #fcfcfb",
"p c #fcfcfc",
"h c #fde100",
"n c #fee200",
"z c #fee300",
"# c #ffe300",
"v c #ffe301",
"s c #ffe407",
"t c #ffe409",
"................................",
"................................",
"................................",
"................................",
"............########............",
"..........############..........",
"........###abc###def###.........",
".......###ge..h#hij.#####.......",
".......###hklm##nopq#####.......",
"......#####n#rst#un#######......",
".....##########v###########.....",
".....#######n#n############.....",
"....##########n#############....",
"....wn######################....",
"...xn##n####################....",
"...yn#######################....",
"...yz#######################....",
"....########################....",
"...y###n####################....",
"....###n####################....",
"....h#######################....",
".....######################.....",
".....######################.....",
"......####################......",
"......####################......",
".......##################.......",
"........################........",
"..........############..........",
"...........##########...........",
"............########............",
"................................",
"................................"};
