/* XPM */
static char *dummy[]={
"32 32 20 1",
"c c #000000",
"e c #000000",
". c #000000",
"l c #030300",
"n c #070600",
"p c #0a0900",
"o c #0b0a00",
"r c #1e1b00",
"q c #1f1c00",
"k c #b7b7b6",
"m c #e8e8e7",
"f c #fadf00",
"h c #fbe001",
"a c #fde100",
"b c #fee200",
"d c #fee300",
"# c #ffe300",
"g c #ffe301",
"i c #ffe407",
"j c #ffe409",
"................................",
"................................",
"............########............",
"...........##########...........",
"..........############..........",
"........################........",
".......##################.......",
"......####################......",
"......####################......",
".....######################.....",
".....######################.....",
"....a#######################....",
"....###b####################....",
"...c###b####################....",
"....########################....",
"...cd#######################....",
"...cb#######################....",
"...eb##b####################....",
"....fb######################....",
"....##########b#############....",
".....#######b#b############.....",
".....##########g###########.....",
"......#######hij##########......",
".......##################.......",
".......####kl#####mn#####.......",
"........###op#####qr###.........",
"..........############..........",
"............########............",
"................................",
"................................",
"................................",
"................................"};
