/* XPM */
static char *dummy[]={
"32 32 9 1",
". c #000000",
"e c #101010",
"a c #191919",
"f c #1b1b1b",
"g c #242424",
"c c #3e3e3e",
"d c #656565",
"# c #ffe300",
"b c #ffffff",
"................................",
"................................",
"................................",
"................................",
"............########............",
"..........############..........",
"........###############.........",
".......##################.......",
"......###################.......",
"......######.abb##########......",
".....#######.cdb###########.....",
"....########.efg###########.....",
"....########....############....",
".......#####################....",
".........###################....",
"............################....",
"..............##############....",
"............################....",
"..........##################....",
"........####################....",
"......######################....",
"....#######################.....",
"....#######################.....",
".....#####################......",
"......####################......",
".......##################.......",
"........################........",
".........#############..........",
"...........##########...........",
"............########............",
"................................",
"................................"};
