/* XPM */
static char *dummy[]={
"32 32 29 1",
". c #000000",
"e c #010000",
"q c #020001",
"b c #040002",
"p c #050002",
"c c #091dfe",
"d c #0a1efe",
"j c #0b1ffe",
"z c #f5027e",
"n c #f6027e",
"x c #f6027f",
"A c #f7027f",
"r c #f8027f",
"w c #f80280",
"o c #f9027d",
"l c #f9027e",
"t c #f90280",
"h c #f90281",
"y c #fa027d",
"v c #fa027f",
"a c #fa0281",
"s c #fb027e",
"k c #fb027f",
"f c #fb0280",
"u c #fc027e",
"i c #fc027f",
"m c #fd027f",
"# c #fe027f",
"g c #ffffff",
"................................",
"................................",
"................................",
"................................",
"................................",
"................................",
"................................",
"................................",
"................................",
"................................",
"................................",
"..............#aaaaaaaaaaaaaaaaa",
"............b#ccdddddddddddddddd",
"...........efdgggggggggggggggggg",
"...........#cggggggggggggggggggg",
"...........hcggggggggggggggggggg",
"...........ijggggggggggggggggggg",
"...........ijggggggggggggggggggg",
"...........ijggggggggggggggggggg",
"...........kjggggggccccccccccccc",
"...........ljggggggcmaaaaaaaaaff",
"...........njggggggcopqqqqqqqeeq",
"...........rjggggggcs...........",
"...........tjggggggcu...........",
"...........tjggggggcm...........",
"...........tjggggggcm...........",
"...........tjggggggcm...........",
"...........vjggggggcm...........",
"...........wjggggggcu...........",
"...........xjggggggcy...........",
"...........zjggggggco...........",
"...........Ajggggggcs..........."};
