/* XPM */
static char *dummy[]={
"32 32 29 1",
". c #000000",
"m c #010000",
"A c #020001",
"q c #040002",
"z c #050002",
"o c #091dfe",
"s c #0a1efe",
"n c #0b1ffe",
"a c #f5027e",
"g c #f6027e",
"b c #f6027f",
"# c #f7027f",
"f c #f8027f",
"c c #f80280",
"v c #f9027d",
"h c #f9027e",
"e c #f90280",
"k c #f90281",
"w c #fa027d",
"d c #fa027f",
"t c #fa0281",
"u c #fb027e",
"i c #fb027f",
"p c #fb0280",
"x c #fc027e",
"j c #fc027f",
"y c #fd027f",
"l c #fe027f",
"r c #ffffff",
"................................",
"................................",
"................................",
"................................",
"................................",
"................................",
"................................",
"................................",
"................................",
"................................",
"................................",
"#abcdeeeefghijjjklm.............",
"nnnnnnnnnnnnnnnnoopq............",
"rrrrrrrrrrrrrrrrrrsl............",
"rrrrrrrrrrrrrrrrrrrol...........",
"rrrrrrrrrrrrrrrrrrrot...........",
"rrrrrrrrrrrrrrrrrrrst...........",
"rrrrrrrrrrrrrrrrrrrst...........",
"rrrrrrrrrrrrrrrrrrrst...........",
"ooooooooooooorrrrrrst...........",
"uvwxyyyyxuvyorrrrrrst...........",
"..........ztorrrrrrst...........",
"..........Atorrrrrrst...........",
"..........Atorrrrrrst...........",
"..........Atorrrrrrst...........",
"..........Atorrrrrrst...........",
"..........Atorrrrrrst...........",
"..........Atorrrrrrst...........",
"..........Atorrrrrrst...........",
"..........mtorrrrrrst...........",
"..........mporrrrrrst...........",
"..........Aporrrrrrst..........."};
