/* XPM */
static char *dummy[]={
"32 32 42 1",
". c #000000",
"a c #0319ff",
"d c #0419fe",
"j c #041aff",
"g c #0619fd",
"k c #061bfe",
"l c #061cff",
"h c #071afd",
"m c #071dff",
"n c #0a1ffe",
"p c #0a20ff",
"r c #0c22ff",
"q c #0e21fd",
"s c #0e22fe",
"t c #0e22ff",
"u c #1024ff",
"v c #1124fe",
"w c #1226ff",
"y c #1428ff",
"x c #1626fd",
"A c #162aff",
"z c #172afe",
"B c #182cff",
"C c #192cfe",
"D c #192dff",
"H c #1b2fff",
"J c #1d31ff",
"F c #1e2efd",
"I c #1e31fe",
"K c #1f33ff",
"L c #2134fe",
"M c #2134ff",
"N c #2435fd",
"# c #f6027b",
"c c #fa027d",
"e c #fb027e",
"o c #fc027e",
"f c #fd027f",
"i c #fe027f",
"G c #fefeff",
"E c #feffff",
"b c #ffffff",
"...........#abbbbbba#...........",
"...........cdbbbbbbdc...........",
"...........eabbbbbbae...........",
"...........fgbbbbbbhf...........",
"...........iabbbbbbji...........",
"...........idbbbbbbki...........",
"...........iabbbbbbli...........",
"...........iabbbbbbmi...........",
"...........fdbbbbbbnf...........",
"...........oabbbbbbpo...........",
"...........cgbbbbbbqc...........",
"...........eabbbbbbre...........",
"...........fdbbbbbbsf...........",
"...........iabbbbbbti...........",
"...........iabbbbbbui...........",
"...........idbbbbbbvi...........",
"...........iabbbbbbwi...........",
"...........fgbbbbbbxf...........",
"...........oabbbbbbyo...........",
"...........cdbbbbbbzc...........",
"...........eabbbbbbAe...........",
"...........fabbbbbbBf...........",
"...........idbbbbbbCi...........",
"...........iabbbbbbDi...........",
"...........igEbbbbbFi...........",
"...........iaGbbbbbHi...........",
"...........fdGbbbbbIf...........",
"...........oaGbbbbbJo...........",
"...........caGbbbbbKc...........",
"...........edGbbbbbLe...........",
"...........faGbbbbbMf...........",
"...........igGbbbbbNi..........."};
