/* XPM */
static char *dummy[]={
"32 32 17 1",
"k c #000000",
"g c #010000",
"b c #020001",
"h c #040002",
"l c #050002",
"m c #060003",
"n c #070003",
"o c #080004",
"# c #0a20ff",
"f c #0b0005",
"e c #0c0006",
"d c #0d0006",
"c c #0e0007",
"i c #0f0007",
"j c #100008",
". c #fe027f",
"a c #ffffff",
"................................",
".##############################.",
".#aaaaaaaaaaaaaaaaaaaaaaaaaaaa#.",
".#aaaaaaaaaaaaaaaaaaaaaaaaaaaa#.",
".#aa########################aa#.",
".#aa#......................#aa#.",
".#aa#.bcccddddddeeeeeffbgh.#aa#.",
".#aa#.ciijiiiiiiiiicccfkkg.#aa#.",
".#aa#.hkkkkkkkkkkkkkkkkkkg.#aa#.",
".#aa#.hkkkkkkkkkkkkkkkkkkg.#aa#.",
".#aa#.lkkkkkkkkkkkkkkkkkkg.#aa#.",
".#aa#.lkkkkkkkkkkkkkkkkkkg.#aa#.",
".#aa#.lkkkkkkkkkkkkkkkkkkg.#aa#.",
".#aa#.mkkkkkkkkkkkkkkkkkkg.#aa#.",
".#aa#.mkkkkkkkkkkkkkkkkkgg.#aa#.",
".#aa#.mkkkkkkkkkkkkkkkkkkg.#aa#.",
".#aa#.mkkkkkkkkkkkkkkkkkgg.#aa#.",
".#aa#.nkkkkkkkkkkkkkkkkkgg.#aa#.",
".#aa#.nkkkkkkkkkkkkkkkkkkg.#aa#.",
".#aa#.nkkkkkkkkkkkkkkkkkkg.#aa#.",
".#aa#.nkkkkkkkkkkkkkkkkkkg.#aa#.",
".#aa#.nkkkkkkkkkkkkkkkkkkk.#aa#.",
".#aa#.okkkkkkkkkkkkkkkkkkk.#aa#.",
".#aa#.okkkkkkkkkkkkkkkkkgk.#aa#.",
".#aa#.kkkkkkkkkkkkkkkkkkgk.#aa#.",
".#aa#.lbgbgggggggbggggggbb.#aa#.",
".#aa#......................#aa#.",
".#aa########################aa#.",
".#aaaaaaaaaaaaaaaaaaaaaaaaaaaa#.",
".#aaaaaaaaaaaaaaaaaaaaaaaaaaaa#.",
".##############################.",
"................................"};
